<svg width="80" height="80" viewBox="0 0 80 80" fill="none" xmlns="http://www.w3.org/2000/svg">
<path fill-rule="evenodd" clip-rule="evenodd" d="M39.7145 31.4267H39.6495C39.5758 31.4267 39.5013 31.4348 39.427 31.4494C39.0603 31.4937 38.73 31.6431 38.4834 31.7848C38.1801 31.9592 37.9255 32.1674 37.7711 32.3201C37.5995 32.4898 37.5285 32.7365 37.5836 32.9714C37.6388 33.2064 37.8122 33.3957 38.0414 33.4712L39.0398 33.8003L38.4625 34.371C38.3308 34.5012 38.2567 34.6787 38.2567 34.8639V35.5475C38.2567 35.7805 38.3738 35.9979 38.5684 36.1262L38.7552 36.2493C38.4672 36.3334 38.2567 36.5995 38.2567 36.9147V38.282C38.2567 38.6648 38.567 38.9751 38.9498 38.9751C39.1324 38.9751 39.3929 39.0045 39.5818 39.0717C39.6048 39.0799 39.6239 39.0879 39.6397 39.0949V39.0977V39.1005V39.1033V39.1061V39.1088V39.1116V39.1144V39.1171V39.1198V39.1226V39.1253V39.128V39.1307V39.1334V39.1361V39.1388V39.1414V39.1441V39.1467V39.1494V39.152V39.1546V39.1573V39.1599V39.1625V39.165V39.1676V39.1702V39.1728V39.1753V39.1779V39.1804V39.1829V39.1855V39.188V39.1905V39.193V39.1955V39.1979V39.2004V39.2029V39.2053V39.2078V39.2102V39.2127V39.2151V39.2175V39.2199V39.2223V39.2247V39.2271V39.2294V39.2318V39.2341V39.2365V39.2388V39.2412V39.2435V39.2458V39.2481V39.2504V39.2527V39.255V39.2573V39.2595V39.2618V39.264V39.2663V39.2685V39.2707V39.2729V39.2752V39.2774V39.2795V39.2817V39.2839V39.2861V39.2882V39.2904V39.2925V39.2947V39.2968V39.2989V39.301V39.3032V39.3053V39.3074V39.3094V39.3115V39.3136V39.3156V39.3177V39.3197V39.3218V39.3238V39.3258V39.3278V39.3298V39.3318V39.3338V39.3358V39.3378V39.3398V39.3417V39.3437V39.3456V39.3476V39.3495V39.3514V39.3533V39.3552V39.3571V39.359V39.3609V39.3628V39.3647V39.3665V39.3684V39.3702V39.3721V39.3739V39.3757V39.3775V39.3793V39.3811V39.3829V39.3847V39.3865V39.3883V39.3901V39.3918V39.3936V39.3953V39.397V39.3988V39.4005V39.4022V39.4039V39.4056V39.4073V39.409V39.4107V39.4124V39.414V39.4157V39.4173V39.419V39.4206V39.4223V39.4239V39.4255V39.4271V39.4287V39.4303V39.4319V39.4335V39.4351V39.4366V39.4382V39.4397V39.4413V39.4428V39.4444V39.4459V39.4474V39.4489V39.4504V39.4519V39.4534V39.4549V39.4564V39.4578V39.4593V39.4608V39.4622V39.4637V39.4651V39.4665V39.468V39.4694V39.4708V39.4722V39.4736V39.475V39.4764V39.4778V39.4791V39.4805V39.4818V39.4832V39.4845V39.4859V39.4872V39.4885V39.4899V39.4912V39.4925V39.4938V39.4951V39.4964V39.4976V39.4989V39.5002V39.5014V39.5027V39.504V39.5052V39.5064V39.5077V39.5089V39.5101V39.5113V39.5125V39.5137V39.5149V39.5161V39.5173V39.5184V39.5196V39.5208V39.5219V39.5231V39.5242V39.5254V39.5265V39.5276V39.5287V39.5298V39.531V39.5321V39.5331V39.5342V39.5353V39.5364V39.5375V39.5385V39.5396V39.5406V39.5417V39.5427V39.5438V39.5448V39.5458V39.5468V39.5478V39.5498V39.5518V39.5538V39.5557V39.5576V39.5595V39.5614V39.5632V39.565V39.5668V39.5686V39.5704V39.5721V39.5738V39.5755V39.5771V39.5788V39.5804V39.582V39.5836V39.5851V39.5867V39.5882V39.5897V39.5911V39.5926V39.594V39.5954V39.5968V39.5982V39.5995V39.6008V39.6021V39.6034V39.6047V39.6059V39.6072V39.6084V39.6096V39.6107V39.6119V39.613V39.6141V39.6152V39.6162V39.6173V39.6183V39.6193V39.6208V39.6223V39.6237V39.625V39.6263V39.6276V39.6288V39.63V39.6312V39.6323V39.6334V39.6344V39.6357V39.637V39.6382V39.6393V39.6404V39.6416V39.6427V39.6438V39.6449V39.646V39.6471V39.6482V39.6492C39.6397 39.8344 39.714 40.0121 39.8457 40.1423L39.3341 40.3952C39.0978 40.512 38.9482 40.7528 38.9482 41.0165C38.9482 41.2802 39.0978 41.521 39.3341 41.6378L40.3311 42.1307V42.3838C40.3311 42.5689 40.4052 42.7464 40.5369 42.8766L40.7299 43.0674L40.5369 43.2581C40.4097 43.3839 40.3363 43.5537 40.3314 43.732H38.958L38.9612 43.7415H38.9498C38.7266 43.7415 38.5171 43.849 38.3869 44.0303C38.2567 44.2116 38.2217 44.4446 38.2931 44.6561L38.9845 46.7069C39.0796 46.9888 39.3438 47.1786 39.6413 47.1786H40.598L40.8693 47.7149L40.5369 48.0435C40.4052 48.1737 40.3311 48.3512 40.3311 48.5364C40.3311 48.7216 40.4052 48.8991 40.5369 49.0293L40.7299 49.22L40.5369 49.4108C40.4052 49.541 40.3311 49.7185 40.3311 49.9036C40.3311 50.0373 40.3697 50.1669 40.4407 50.2777L39.4244 50.6126C39.1951 50.6882 39.0217 50.8775 38.9666 51.1124C38.9261 51.2845 38.9534 51.4629 39.0383 51.6127C38.9242 51.8141 38.9179 52.0598 39.0228 52.2673L39.2625 52.7413C39.1474 52.8164 39.0547 52.9257 39.0002 53.0584C38.918 53.2584 38.935 53.4814 39.0383 53.6636C39.0062 53.7201 38.9818 53.7819 38.9664 53.8477C38.8931 54.1613 39.0455 54.484 39.3341 54.6267L39.8455 54.8798C39.7138 55.01 39.6397 55.1875 39.6397 55.3727C39.6397 55.5579 39.7138 55.7353 39.8455 55.8655L40.0384 56.0563L39.8455 56.247C39.7138 56.3772 39.6397 56.5547 39.6397 56.7399C39.6397 56.9251 39.714 57.1028 39.8457 57.233L39.3341 57.4858C39.1333 57.5851 38.9928 57.7754 38.9571 57.9966C38.9213 58.2177 38.9947 58.4425 39.154 58.6001L39.3469 58.7908L39.154 58.9816C39.0223 59.1118 38.9482 59.2892 38.9482 59.4744C38.9482 59.6596 39.0223 59.8371 39.154 59.9673L39.8455 60.6509C39.8982 60.7031 39.9591 60.7465 40.0256 60.7794C40.136 60.8339 40.285 60.9462 40.3901 61.093L39.8364 61.3662L38.7422 60.8262C38.4015 60.658 37.9889 60.7956 37.8172 61.1345L37.5459 61.6701L36.8209 60.9545C36.6634 60.7989 36.4411 60.728 36.2226 60.7636C36.0041 60.7992 35.8158 60.9371 35.7157 61.1345L35.0153 62.5174C34.9661 62.6145 34.9405 62.7218 34.9405 62.8306V63.5203H34.2326C34.1262 63.5203 34.0213 63.5448 33.9259 63.5919L33.14 63.9798L32.7495 63.2088C32.6495 63.0113 32.4611 62.8735 32.2426 62.8379C32.0242 62.8023 31.8018 62.8732 31.6443 63.0287L31.1463 63.5203H30.7302C30.6024 63.5203 30.4827 63.5549 30.3799 63.6153C30.1948 63.5069 29.9663 63.4888 29.7624 63.574C29.7336 63.586 29.706 63.5999 29.6795 63.6153C29.6068 63.5728 29.5261 63.5433 29.4407 63.5294C29.2223 63.4938 28.9999 63.5647 28.8424 63.7202L28.3444 64.2118H28.2128L27.7148 63.7202C27.585 63.5921 27.4101 63.5203 27.2279 63.5203H26.8118L26.3138 63.0287C26.1149 62.8324 25.8175 62.7747 25.5596 62.8825C25.3022 62.9901 25.1345 63.2415 25.1338 63.5203H25.1264C24.8856 63.5203 24.662 63.6454 24.5359 63.8506C24.5108 63.8915 24.4902 63.9345 24.4743 63.9787L24.212 63.7198L24.2107 63.7185L24.2053 63.7132L24.1817 63.6899L24.0723 63.5819L23.5119 63.0287C23.0713 62.5939 22.5565 62.4692 22.092 62.5438C21.7349 62.6012 21.4399 62.7695 21.2387 62.9369C19.6736 60.4211 14.6724 50.9331 14.0655 43.732C13.5822 37.9983 15.8786 29.412 17.5424 24.4468C17.6683 24.0218 17.8185 23.5667 17.9936 23.0877L19.3786 21.7459C19.4327 21.6936 19.4778 21.6328 19.5123 21.566L20.0341 20.555H21.0428C21.3386 20.555 21.6019 20.3672 21.6981 20.0874L22.2527 18.4757H23.9046C23.9769 18.4757 24.0487 18.4644 24.1176 18.4422L25.8677 17.8771L26.2841 18.2805C26.4682 18.4587 26.7355 18.5209 26.9794 18.4422L28.7295 17.8771L29.146 18.2805C29.3776 18.5048 29.7333 18.5398 30.0042 18.3649L31.6879 17.2775L32.0078 17.5874C32.1918 17.7656 32.4592 17.8278 32.703 17.7491L34.5846 17.1415L35.7652 17.7133C36.0271 17.8402 36.3405 17.7899 36.5495 17.5874L37.4982 16.6683L38.4469 17.5874C38.4799 17.6193 38.5154 17.6474 38.5528 17.6717L38.8463 17.9618L38.2931 19.6026C38.2085 19.8536 38.2742 20.1308 38.4625 20.3169L39.1542 21.0008L38.6427 21.2536C38.4063 21.3705 38.2567 21.6113 38.2567 21.8749C38.2567 22.1386 38.4063 22.3794 38.6427 22.4963L39.68 23.0091C39.6176 23.1841 39.6265 23.3814 39.7143 23.555L40.1778 24.4716L39.8455 24.8002C39.7138 24.9304 39.6397 25.1079 39.6397 25.2931C39.6397 25.4783 39.714 25.6559 39.8457 25.7861L39.3341 26.039C39.0978 26.1558 38.9482 26.3967 38.9482 26.6603C38.9482 26.924 39.0978 27.1648 39.3341 27.2817L39.8457 27.5345L39.154 28.2183C38.9947 28.3759 38.9213 28.6007 38.9571 28.8218C38.9928 29.043 39.1333 29.2333 39.3341 29.3325L39.4602 29.3948L39.3341 29.4571C39.1549 29.5458 39.0226 29.7075 38.9714 29.9008C38.9201 30.0941 38.9548 30.3001 39.0666 30.466L39.7145 31.4267ZM19.7712 19.1688C23.0691 13.0802 29.5025 6 39.8525 6C51.7271 6 58.4463 14.4588 61.1895 20.5102C61.1333 20.4608 61.0763 20.4105 61.0185 20.3596L61.0176 20.3589C60.8015 20.1684 60.575 19.9689 60.3445 19.7701C59.9903 19.4649 59.6306 19.166 59.3159 18.9408C59.1591 18.8287 58.9979 18.7235 58.8433 18.6437C58.7139 18.5769 58.5012 18.4799 58.2616 18.4759C58.252 18.4724 58.2141 18.4575 58.1455 18.4044C58.042 18.3242 57.9263 18.2008 57.8107 18.0514C57.698 17.9059 57.6014 17.7566 57.5322 17.6417C57.498 17.585 57.4715 17.5383 57.4541 17.5068L57.4352 17.4721L57.431 17.4641C57.3276 17.2642 57.1327 17.1268 56.9097 17.096L56.9083 17.0958L56.9038 17.0952L56.8877 17.093L56.8294 17.0855C56.7797 17.0792 56.709 17.0707 56.623 17.0612C56.4517 17.0424 56.2162 17.0195 55.963 17.0042C55.7124 16.989 55.4312 16.9803 55.1722 16.9929C55.0445 16.9991 54.8885 17.0113 54.731 17.0425L53.5403 16.4658C53.2784 16.3389 52.965 16.3892 52.7559 16.5917L52.3886 16.9476L51.394 16.4658C51.1792 16.3617 50.926 16.3755 50.7238 16.5023C50.5215 16.629 50.3987 16.8509 50.3987 17.0896L49.82 17.0895L48.5322 16.4658C48.438 16.4202 48.3347 16.3965 48.23 16.3965H46.8818L44.1004 15.7228C43.8694 15.6669 43.6258 15.7332 43.455 15.8986L43.1352 16.2085L41.4515 15.1211C41.2226 14.9733 40.9283 14.9733 40.6995 15.1211L39.0158 16.2085L37.9805 15.2055C37.7117 14.9452 37.2847 14.9452 37.0159 15.2055L35.9332 16.2545L34.9385 15.7727C34.7778 15.6948 34.5933 15.682 34.4234 15.7369L32.6732 16.302L32.2568 15.8986C32.0252 15.6743 31.6694 15.6393 31.3985 15.8142L29.7149 16.9016L29.395 16.5917C29.211 16.4135 28.9436 16.3513 28.6998 16.43L26.9496 16.9951L26.5332 16.5917C26.3492 16.4135 26.0818 16.3513 25.838 16.43L23.7954 17.0895H21.7582C21.4623 17.0895 21.1991 17.2774 21.1028 17.5571L20.5483 19.1688H19.7712ZM61.7972 21.9776L61.4163 22.5019C61.0537 22.2385 60.5407 21.7867 60.0344 21.3407C59.8316 21.162 59.6299 20.9843 59.4394 20.8201C59.09 20.5189 58.77 20.2547 58.5094 20.0683C58.3785 19.9746 58.2781 19.9119 58.2073 19.8754C58.1945 19.8688 58.1841 19.8638 58.1758 19.86C57.8085 19.8395 57.5063 19.6627 57.2964 19.5001C57.0645 19.3204 56.8672 19.0972 56.7146 18.9C56.5839 18.7313 56.4735 18.5651 56.3897 18.4304C56.2447 18.4153 56.0662 18.3992 55.8793 18.3878C55.6529 18.3741 55.4274 18.3684 55.2392 18.3775C55.0818 18.3851 55.0025 18.4014 54.9774 18.4066C54.9677 18.4086 54.9661 18.4089 54.9712 18.4064C54.7804 18.4988 54.5578 18.4988 54.367 18.4064L53.3723 17.9246L53.3531 17.9432C52.935 18.3483 52.3083 18.4489 51.7844 18.1951L51.6824 18.1457C51.5603 18.3437 51.3415 18.4757 51.0918 18.4757H49.6609C49.5563 18.4757 49.453 18.452 49.3588 18.4064L48.071 17.7826H46.7991C46.7442 17.7826 46.6894 17.7761 46.636 17.7632L44.1453 17.16L43.7041 17.5874C43.4725 17.8117 43.1167 17.8467 42.8458 17.6718L41.0755 16.5284L40.0427 17.1954L40.1286 17.2803C40.3169 17.4665 40.3827 17.7437 40.2981 17.9946L39.7449 19.6354L40.82 20.6984C40.9794 20.856 41.0527 21.0808 41.017 21.3019C40.9812 21.5231 40.8407 21.7134 40.6399 21.8126L40.533 21.8655H41.0242C41.3053 21.8655 41.5585 22.0352 41.6653 22.2952C41.7721 22.5551 41.7114 22.8538 41.5115 23.0514L41.1792 23.38L41.6427 24.2967C41.7785 24.5652 41.7255 24.8907 41.5115 25.1023L41.3186 25.2931L41.5115 25.4838C41.6708 25.6413 41.7442 25.8662 41.7084 26.0873C41.6727 26.3085 41.5322 26.4987 41.3314 26.598L41.2053 26.6603L41.3314 26.7226C41.5322 26.8219 41.6727 27.0122 41.7084 27.2333C41.7442 27.4545 41.6708 27.6793 41.5115 27.8368L40.8199 28.5207L41.3314 28.7735C41.5677 28.8904 41.7173 29.1312 41.7173 29.3948C41.7173 29.6585 41.5677 29.8993 41.3314 30.0162L40.6593 30.3484L41.5989 31.7419C41.7421 31.9543 41.7565 32.2285 41.6362 32.4548C41.5158 32.681 41.2805 32.8224 41.0242 32.8224H41.0229H41.0215H41.0201H41.0187H41.0174H41.016H41.0146H41.0131H41.0117H41.0103H41.0088H41.0074H41.006H41.0045H41.003H41.0015H41.0001H40.9986H40.9971H40.9955H40.994H40.9925H40.991H40.9894H40.9879H40.9863H40.9847H40.9832H40.9816H40.98H40.9784H40.9768H40.9752H40.9735H40.9719H40.9703H40.9686H40.967H40.9653H40.9636H40.962H40.9603H40.9586H40.9569H40.9552H40.9535H40.9517H40.95H40.9483H40.9465H40.9448H40.943H40.9412H40.9395H40.9377H40.9359H40.9341H40.9323H40.9305H40.9287H40.9268H40.925H40.9232H40.9213H40.9194H40.9176H40.9157H40.9138H40.9119H40.9101H40.9082H40.9063H40.9043H40.9024H40.9005H40.8986H40.8966H40.8947H40.8927H40.8907H40.8888H40.8868H40.8848H40.8828H40.8808H40.8788H40.8768H40.8748H40.8728H40.8707H40.8687H40.8667H40.8646H40.8625H40.8605H40.8584H40.8563H40.8542H40.8521H40.8501H40.8479H40.8458H40.8437H40.8416H40.8395H40.8373H40.8352H40.833H40.8309H40.8287H40.8265H40.8244H40.8222H40.82H40.8178H40.8156H40.8134H40.8112H40.8089H40.8067H40.8045H40.8022H40.8H40.7978H40.7955H40.7932H40.791H40.7887H40.7864H40.7841H40.7818H40.7795H40.7772H40.7749H40.7726H40.7703H40.7679H40.7656H40.7633H40.7609H40.7586H40.7562H40.7538H40.7515H40.7491H40.7467H40.7443H40.7419H40.7395H40.7371H40.7347H40.7323H40.7299H40.7274H40.725H40.7226H40.7201H40.7177H40.7152H40.7128H40.7103H40.7078H40.7053H40.7029H40.7004H40.6979H40.6954H40.6929H40.6904H40.6878H40.6853H40.6828H40.6803H40.6777H40.6752H40.6726H40.6701H40.6675H40.665H40.6624H40.6598H40.6573H40.6547H40.6521H40.6495H40.6469H40.6443H40.6417H40.6391H40.6365H40.6338H40.6312H40.6286H40.6259H40.6233H40.6207H40.618H40.6154H40.6127H40.61H40.6074H40.6047H40.602H40.5993H40.5966H40.5939H40.5912H40.5885H40.5858H40.5831H40.5804H40.5777H40.575H40.5722H40.5695H40.5667H40.564H40.5613H40.5585H40.5558H40.553H40.5502H40.5475H40.5447H40.5419H40.5391H40.5363H40.5335H40.5307H40.5279H40.5251H40.5223H40.5195H40.5167H40.5139H40.5111H40.5082H40.5054H40.5026H40.5015L40.5497 32.8383C40.7789 32.9139 40.9523 33.1032 41.0075 33.3381C41.0627 33.5731 40.9917 33.8198 40.82 33.9895L39.6429 35.1533V35.1742L41.4056 36.336C41.6612 36.5045 41.776 36.8206 41.6881 37.1138C41.6002 37.407 41.3303 37.6078 41.0242 37.6078H39.6429V37.6568C39.7774 37.6832 39.9145 37.7187 40.0466 37.7657C40.3794 37.8842 41.0259 38.2124 41.0259 38.9656V38.9688V38.972V38.9752V38.9784V38.9815V38.9847V38.9878V38.991V38.9941V38.9972V39.0003V39.0034V39.0065V39.0096V39.0126V39.0157V39.0187V39.0218V39.0248V39.0278V39.0309V39.0339V39.0369V39.0399V39.0428V39.0458V39.0488V39.0517V39.0546V39.0576V39.0605V39.0634V39.0663V39.0692V39.0721V39.075V39.0779V39.0807V39.0836V39.0864V39.0893V39.0921V39.0949V39.0977V39.1005V39.1033V39.1061V39.1088V39.1116V39.1144V39.1171V39.1198V39.1226V39.1253V39.128V39.1307V39.1334V39.1361V39.1388V39.1414V39.1441V39.1467V39.1494V39.152V39.1546V39.1573V39.1599V39.1625V39.165V39.1676V39.1702V39.1728V39.1753V39.1779V39.1804V39.1829V39.1855V39.188V39.1905V39.193V39.1955V39.1979V39.2004V39.2029V39.2053V39.2078V39.2102V39.2127V39.2151V39.2175V39.2199V39.2223V39.2247V39.2271V39.2294V39.2318V39.2341V39.2365V39.2388V39.2412V39.2435V39.2458V39.2481V39.2504V39.2527V39.255V39.2573V39.2595V39.2618V39.264V39.2663V39.2685V39.2707V39.2729V39.2752V39.2774V39.2795V39.2817V39.2839V39.2861V39.2882V39.2904V39.2925V39.2947V39.2968V39.2989V39.301V39.3032V39.3053V39.3074V39.3094V39.3115V39.3136V39.3156V39.3177V39.3197V39.3218V39.3238V39.3258V39.3278V39.3298V39.3318V39.3338V39.3358V39.3378V39.3398V39.3417V39.3437V39.3456V39.3476V39.3495V39.3514V39.3533V39.3552V39.3571V39.359L41.5115 39.84C41.6708 39.9975 41.7442 40.2223 41.7084 40.4435C41.6727 40.6647 41.5322 40.8549 41.3314 40.9542L41.2053 41.0165L41.3314 41.0788C41.5677 41.1956 41.7173 41.4365 41.7173 41.7001V42.0943L42.203 42.5745C42.3347 42.7047 42.4088 42.8822 42.4088 43.0674C42.4088 43.2526 42.3347 43.4301 42.203 43.5603L42.01 43.751L42.203 43.9418C42.4028 44.1394 42.4636 44.4381 42.3568 44.698C42.2499 44.958 41.9967 45.1277 41.7157 45.1277H39.9322L39.9991 45.3774L40.139 45.7924H41.0242C41.2856 45.7924 41.5248 45.9395 41.6427 46.1727L42.3342 47.54C42.47 47.8085 42.417 48.1341 42.203 48.3456L42.01 48.5364L42.203 48.7271C42.3347 48.8573 42.4088 49.0348 42.4088 49.22C42.4088 49.4052 42.3347 49.5827 42.203 49.7129L42.01 49.9036L42.203 50.0944C42.3746 50.2641 42.4456 50.5108 42.3904 50.7457C42.3352 50.9807 42.1618 51.17 41.9326 51.2455L40.9163 51.5805C41.0366 51.7682 41.0609 52.0059 40.9738 52.2179C40.9193 52.3507 40.8266 52.4599 40.7115 52.535L40.9513 53.009C41.0252 53.1553 41.0439 53.3206 41.0085 53.476L41.0847 53.5131L40.9424 53.6516C40.9402 53.6556 40.938 53.6596 40.9357 53.6636C40.9797 53.7412 41.0081 53.8262 41.0198 53.9137L41.3314 54.0677C41.5322 54.167 41.6727 54.3572 41.7084 54.5784C41.7442 54.7996 41.6708 55.0244 41.5115 55.1819L41.3186 55.3727L41.5115 55.5634C41.6432 55.6936 41.7173 55.8711 41.7173 56.0563C41.7173 56.2415 41.6432 56.419 41.5115 56.5492L41.3186 56.7399L41.5115 56.9307C41.6708 57.0882 41.7442 57.313 41.7084 57.5342C41.6727 57.7553 41.5322 57.9456 41.3314 58.0449L40.8199 58.2977C40.9515 58.4279 41.0258 58.6056 41.0259 58.7908C41.0259 58.8846 41.0069 58.9763 40.971 59.061C41.1606 59.2953 41.2974 59.6061 41.259 59.9835C41.4126 60.1358 41.557 60.3191 41.671 60.5339C41.7635 60.7083 41.8328 60.898 41.8718 61.1001L42.6383 61.8567L42.8519 61.6459C43.1218 61.3794 43.5558 61.3794 43.8257 61.6459L44.5262 62.3373C44.5794 62.3899 44.6238 62.4507 44.6576 62.5174L45.0481 63.2883L45.8339 62.9005C46.0488 62.7945 46.3031 62.8069 46.5066 62.9334C46.7101 63.0599 46.8338 63.2824 46.8338 63.522V63.9237L46.9769 64.065L47.9354 63.5919C48.1502 63.4859 48.4045 63.4983 48.608 63.6248C48.6982 63.6809 48.7728 63.7559 48.8278 63.8429L49.3363 63.5919C49.5511 63.4859 49.8055 63.4983 50.009 63.6248C50.1434 63.7084 50.2431 63.834 50.2952 63.9787L50.5571 63.7202C50.756 63.5238 51.0534 63.4662 51.3113 63.574C51.5687 63.6816 51.7364 63.9329 51.7371 64.2118H51.7445C51.7765 64.2118 51.808 64.2139 51.8389 64.2182L52.5711 63.1341C52.7416 62.8816 53.057 62.7701 53.3483 62.8593C53.5108 62.909 53.6446 63.0148 53.7312 63.1514L54.2396 62.9005C54.5072 62.7685 54.8292 62.8224 55.039 63.0345C55.1701 63.1669 55.239 63.3424 55.2395 63.5204C55.4009 63.5187 55.5604 63.5735 55.6879 63.6787C55.8176 63.5037 55.9474 63.3207 56.0734 63.1341C56.1408 63.0343 56.2331 62.9538 56.3411 62.9005L57.742 62.2091C57.8374 62.162 57.9424 62.1375 58.0488 62.1375C58.1656 62.1375 58.3219 62.1535 58.4806 62.2162C58.5926 62.2604 58.7456 62.3453 58.8662 62.4973C61.8486 58.7377 66 51.5787 66 43.6566C66 34.6316 63.3062 25.7357 61.8515 22.1243C61.8337 22.0756 61.8156 22.0267 61.7972 21.9776ZM58.0488 63.522L57.6776 63.146C57.6833 63.1705 57.6911 63.1963 57.7016 63.2229C57.7768 63.4138 57.9239 63.4867 57.9715 63.5055C58.0138 63.5222 58.0404 63.5236 58.0471 63.5237C58.0476 63.5231 58.0482 63.5226 58.0488 63.522ZM57.9141 63.6699C57.3303 64.3672 56.3792 66.1266 55.9473 66.9792C54.7799 69.0535 50.0633 73.3403 40.5369 73.8935C31.0104 74.4466 23.959 67.2096 21.6241 63.522L22.111 64.0153C22.1234 64.003 22.1533 63.9781 22.1959 63.9547C22.2376 63.9319 22.2778 63.918 22.3119 63.9125C22.3431 63.9075 22.3688 63.9093 22.3941 63.9173C22.4188 63.925 22.4685 63.9465 22.5381 64.0153L23.0985 64.5684L23.2079 64.6765L23.2315 64.6997L23.2369 64.705L23.2386 64.7067L23.9391 65.3981C23.9919 65.4503 24.0527 65.4936 24.1192 65.5264L25.5202 66.2178C25.7877 66.3499 26.1097 66.2959 26.3195 66.0838C26.5294 65.8718 26.58 65.5492 26.4452 65.2831L26.2174 64.8334C26.3128 64.881 26.4188 64.9065 26.5274 64.9065H26.9434L27.4414 65.3981C27.5711 65.5262 27.7461 65.598 27.9283 65.598H28.6288C28.8111 65.598 28.986 65.5262 29.1157 65.3981L29.1402 65.374L29.4115 65.9095C29.5564 66.1956 29.8788 66.3449 30.1908 66.2704C30.5022 66.1961 30.7221 65.918 30.7229 65.5979C30.8153 65.599 30.9088 65.5814 30.9976 65.5443C31.2549 65.4368 31.4227 65.1854 31.4233 64.9065H31.4307C31.613 64.9065 31.7879 64.8347 31.9176 64.7067L31.9421 64.6825L32.2134 65.2181C32.3851 65.557 32.7977 65.6946 33.1384 65.5264L34.3943 64.9065H35.6336C36.0163 64.9065 36.3267 64.5962 36.3267 64.2134V62.9961L36.5231 62.6082L37.2481 63.3238C37.4056 63.4794 37.628 63.5503 37.8464 63.5147C38.0649 63.4791 38.2533 63.3412 38.3533 63.1438L38.7438 62.3728L39.5297 62.7607C39.723 62.8561 39.9498 62.8561 40.1432 62.7607L41.1016 62.2876L42.1514 63.3238C42.4213 63.5903 42.8553 63.5903 43.1252 63.3238L43.3388 63.113L43.472 63.2445L44.1214 64.5266C44.2931 64.8656 44.7057 65.0031 45.0465 64.835L45.555 64.584C45.5829 64.6282 45.616 64.6694 45.6538 64.7067L46.3543 65.3981C46.5645 65.6056 46.8831 65.6571 47.1479 65.5264L47.6564 65.2754C47.7114 65.3624 47.786 65.4374 47.8762 65.4935C48.0797 65.62 48.334 65.6324 48.5489 65.5264L48.95 65.3284V65.5963C48.95 65.8758 49.1179 66.128 49.3757 66.2358C49.6336 66.3436 49.931 66.2859 50.13 66.0896L50.7131 65.514C50.8114 65.5675 50.9241 65.598 51.044 65.598H51.0514C51.0521 65.9019 51.2509 66.1701 51.5416 66.259C51.833 66.3482 52.1483 66.2367 52.3189 65.9842L53.0511 64.9001C53.0848 64.9047 53.1188 64.9069 53.1528 64.9065C53.1533 65.0845 53.2222 65.26 53.3533 65.3924C53.4883 65.5289 53.6698 65.5998 53.8533 65.5979C53.8535 65.7332 53.886 66.1495 54.2983 66.3475C54.6442 66.5136 54.9623 66.3644 55.0472 66.323C55.2878 66.2056 55.5349 65.9804 55.7406 65.7715C56.1553 65.3505 56.6605 64.7233 57.1174 64.0632L57.9141 63.6699Z" fill="white"/>
</svg>
