<svg width="1850" height="342" viewBox="0 0 1850 342" fill="none" xmlns="http://www.w3.org/2000/svg">
<g opacity="0.9" filter="url(#filter0_f)">
<rect x="60" y="60" width="479" height="222" fill="#FFF067"/>
<rect x="60" y="60" width="479" height="222" fill="url(#paint0_linear)"/>
<rect width="415" height="222" transform="matrix(-1 0 0 1 954 60)" fill="#9BF756"/>
<rect width="415" height="222" transform="matrix(-1 0 0 1 954 60)" fill="url(#paint1_linear)"/>
<rect x="954" y="60" width="249" height="222" fill="#9BF656"/>
<rect x="954" y="60" width="249" height="222" fill="url(#paint2_linear)"/>
<rect x="1203" y="60" width="587" height="222" fill="#FF655B"/>
<rect x="1203" y="60" width="587" height="222" fill="url(#paint3_linear)"/>
</g>
<path d="M163.439 177.779C162.788 183.053 161.372 187.838 159.191 192.135C157.043 196.432 154.292 199.687 150.939 201.9C147.619 204.081 143.892 205.123 139.758 205.025C134.257 204.895 129.927 202.942 126.77 199.166L122.033 224.312H110.412L123.107 151.168L133.703 151.119L132.824 156.588C136.861 152.193 141.662 150.061 147.229 150.191C150.581 150.224 153.495 151.087 155.969 152.779C158.443 154.439 160.331 156.865 161.633 160.055C162.967 163.245 163.684 166.793 163.781 170.699C163.814 172.685 163.7 175.045 163.439 177.779ZM152.014 176.754L152.258 173.189C152.355 168.99 151.656 165.735 150.158 163.424C148.693 161.113 146.48 159.924 143.518 159.859C139.156 159.729 135.38 161.731 132.189 165.865L128.088 189.449C129.553 193.388 132.531 195.423 137.023 195.553C140.865 195.65 144.087 194.153 146.691 191.061C149.328 187.968 151.102 183.199 152.014 176.754ZM202.451 204C202.061 202.698 201.898 201.054 201.963 199.068C197.601 203.137 192.897 205.107 187.852 204.977C183.262 204.911 179.453 203.447 176.426 200.582C173.431 197.685 172.031 194.023 172.227 189.596C172.487 184.029 174.896 179.651 179.453 176.461C184.01 173.271 190.13 171.676 197.812 171.676L205.332 171.773L206.016 168.16C206.211 166.891 206.211 165.702 206.016 164.596C205.365 161.08 203.037 159.273 199.033 159.176C196.559 159.111 194.378 159.745 192.49 161.08C190.635 162.382 189.495 164.14 189.072 166.354L177.5 166.451C177.728 163.196 178.883 160.348 180.967 157.906C183.05 155.432 185.817 153.512 189.268 152.145C192.718 150.777 196.364 150.126 200.205 150.191C205.967 150.322 210.459 152.063 213.682 155.416C216.904 158.736 218.239 163.049 217.686 168.355L213.633 193.111L213.242 197.506C213.145 199.426 213.389 201.298 213.975 203.121L213.926 204H202.451ZM190.537 195.504C192.979 195.569 195.241 195.016 197.324 193.844C199.408 192.639 201.182 191.093 202.646 189.205L204.453 179.195L198.936 179.146C194.574 179.146 191.09 179.977 188.486 181.637C185.882 183.264 184.401 185.51 184.043 188.375C183.783 190.556 184.255 192.281 185.459 193.551C186.696 194.788 188.389 195.439 190.537 195.504ZM252.01 138.326L249.764 151.168H258.797L257.283 159.957H248.201L243.221 189.547C243.123 190.361 243.107 191.093 243.172 191.744C243.367 193.86 244.669 194.967 247.078 195.064C248.283 195.064 249.65 194.918 251.18 194.625L250.398 203.902C247.99 204.586 245.564 204.928 243.123 204.928C239.087 204.863 236.059 203.495 234.041 200.826C232.055 198.124 231.274 194.56 231.697 190.133L236.629 159.957H228.182L229.744 151.168H238.143L240.389 138.326H252.01ZM283.941 195.553C286.708 195.618 289.15 194.82 291.266 193.16C293.414 191.467 294.781 189.27 295.367 186.568L306.305 186.52C305.947 190.003 304.677 193.176 302.496 196.041C300.348 198.906 297.581 201.135 294.195 202.73C290.81 204.326 287.278 205.074 283.6 204.977C279.075 204.911 275.217 203.74 272.027 201.461C268.837 199.182 266.51 196.041 265.045 192.037C263.58 188.001 263.092 183.508 263.58 178.561L263.727 176.852C264.28 171.741 265.761 167.118 268.17 162.984C270.611 158.818 273.753 155.611 277.594 153.365C281.435 151.119 285.699 150.061 290.387 150.191C296.116 150.322 300.689 152.226 304.107 155.904C307.525 159.55 309.234 164.303 309.234 170.162H298.395C298.395 167.135 297.646 164.661 296.148 162.74C294.684 160.82 292.551 159.794 289.752 159.664C285.227 159.534 281.663 161.454 279.059 165.426C276.454 169.397 275.055 174.996 274.859 182.223C274.632 190.979 277.659 195.423 283.941 195.553ZM333.256 156.979C337.65 152.356 342.647 150.11 348.246 150.24C353.259 150.305 356.97 152.079 359.379 155.562C361.82 159.046 362.732 163.863 362.113 170.016L356.449 204H344.877L350.639 169.869C350.801 168.469 350.834 167.167 350.736 165.963C350.313 161.992 347.969 159.957 343.705 159.859C339.408 159.794 335.567 161.91 332.182 166.207L325.59 204H314.018L327.006 129H338.627L333.256 156.979ZM423.193 138.326L420.947 151.168H429.98L428.467 159.957H419.385L414.404 189.547C414.307 190.361 414.29 191.093 414.355 191.744C414.551 193.86 415.853 194.967 418.262 195.064C419.466 195.064 420.833 194.918 422.363 194.625L421.582 203.902C419.173 204.586 416.748 204.928 414.307 204.928C410.27 204.863 407.243 203.495 405.225 200.826C403.239 198.124 402.458 194.56 402.881 190.133L407.812 159.957H399.365L400.928 151.168H409.326L411.572 138.326H423.193ZM451.17 156.979C455.564 152.356 460.561 150.11 466.16 150.24C471.173 150.305 474.884 152.079 477.293 155.562C479.734 159.046 480.646 163.863 480.027 170.016L474.363 204H462.791L468.553 169.869C468.715 168.469 468.748 167.167 468.65 165.963C468.227 161.992 465.883 159.957 461.619 159.859C457.322 159.794 453.481 161.91 450.096 166.207L443.504 204H431.932L444.92 129H456.541L451.17 156.979ZM512.398 204.977C507.809 204.879 503.821 203.723 500.436 201.51C497.083 199.296 494.592 196.269 492.965 192.428C491.37 188.587 490.768 184.306 491.158 179.586L491.305 177.584C491.891 172.213 493.453 167.395 495.992 163.131C498.564 158.834 501.754 155.579 505.562 153.365C509.371 151.152 513.505 150.094 517.965 150.191C524.573 150.322 529.521 152.779 532.809 157.564C536.129 162.35 537.382 168.583 536.568 176.266L535.885 181.344H502.633C502.34 185.543 503.186 188.928 505.172 191.5C507.158 194.072 509.892 195.39 513.375 195.455C518.355 195.618 522.945 193.453 527.145 188.961L533.004 195.113C530.79 198.271 527.877 200.729 524.264 202.486C520.65 204.212 516.695 205.042 512.398 204.977ZM517.33 159.664C511.21 159.469 506.62 163.798 503.561 172.652L525.484 172.701L525.68 171.676C525.908 170.178 525.924 168.714 525.729 167.281C525.37 164.97 524.459 163.147 522.994 161.812C521.529 160.478 519.641 159.762 517.33 159.664ZM601.311 189.352C601.864 186.129 599.764 183.899 595.012 182.662C590.292 181.393 587.069 180.383 585.344 179.635C578.638 176.77 575.399 172.408 575.627 166.549C575.79 161.796 577.938 157.874 582.072 154.781C586.239 151.656 591.219 150.126 597.014 150.191C602.613 150.257 607.17 151.835 610.686 154.928C614.234 158.02 615.975 162.073 615.91 167.086L604.436 167.037C604.501 164.596 603.833 162.691 602.434 161.324C601.034 159.924 599.113 159.192 596.672 159.127C594.1 159.127 591.887 159.762 590.031 161.031C588.208 162.301 587.15 163.961 586.857 166.012C586.402 168.974 588.485 171.041 593.107 172.213C597.73 173.352 601.148 174.41 603.361 175.387C609.807 178.219 612.915 182.646 612.688 188.668C612.525 192.021 611.418 194.951 609.367 197.457C607.349 199.931 604.631 201.835 601.213 203.17C597.795 204.472 594.165 205.074 590.324 204.977C584.562 204.911 579.777 203.235 575.969 199.947C572.193 196.66 570.337 192.444 570.402 187.301L581.584 187.35C581.649 190.182 582.495 192.33 584.123 193.795C585.751 195.26 587.98 196.008 590.812 196.041C593.677 196.041 596.053 195.455 597.941 194.283C599.862 193.079 600.985 191.435 601.311 189.352ZM643.35 181.441L636.807 187.252L633.926 204H622.354L635.342 129H646.914L639.492 171.578L643.545 167.379L660.342 151.168H675.137L651.699 173.727L667.129 204H654.58L643.35 181.441ZM696.18 186.91L712.781 151.168H725.574L694.275 213.131C689.913 221.464 684.168 225.582 677.039 225.484C675.281 225.419 673.279 225.094 671.033 224.508L672.01 215.328L674.109 215.523C676.909 215.621 679.22 215.084 681.043 213.912C682.866 212.773 684.396 210.982 685.633 208.541L688.416 203.072L679.578 151.168H691.59L696.18 186.91ZM799.643 187.545L814.145 151.168H825.766L802.621 204H793.1L788.461 167.867L771.371 204H761.801L756.967 151.168H767.904L769.906 187.008L786.605 151.168H795.346L799.643 187.545ZM838.801 204H827.229L836.408 151.168H847.98L838.801 204ZM838.068 137.643C838.068 135.852 838.654 134.322 839.826 133.053C840.998 131.783 842.577 131.116 844.562 131.051C846.451 130.986 848.013 131.572 849.25 132.809C850.52 134.013 851.154 135.494 851.154 137.252C851.154 139.107 850.536 140.637 849.299 141.842C848.094 143.046 846.548 143.681 844.66 143.746C842.805 143.811 841.242 143.258 839.973 142.086C838.703 140.882 838.068 139.4 838.068 137.643ZM879.717 138.326L877.471 151.168H886.504L884.99 159.957H875.908L870.928 189.547C870.83 190.361 870.814 191.093 870.879 191.744C871.074 193.86 872.376 194.967 874.785 195.064C875.99 195.064 877.357 194.918 878.887 194.625L878.105 203.902C875.697 204.586 873.271 204.928 870.83 204.928C866.794 204.863 863.766 203.495 861.748 200.826C859.762 198.124 858.981 194.56 859.404 190.133L864.336 159.957H855.889L857.451 151.168H865.85L868.096 138.326H879.717ZM907.693 156.979C912.088 152.356 917.085 150.11 922.684 150.24C927.697 150.305 931.408 152.079 933.816 155.562C936.258 159.046 937.169 163.863 936.551 170.016L930.887 204H919.314L925.076 169.869C925.239 168.469 925.271 167.167 925.174 165.963C924.751 161.992 922.407 159.957 918.143 159.859C913.846 159.794 910.005 161.91 906.619 166.207L900.027 204H888.455L901.443 129H913.064L907.693 156.979ZM980.004 168.6L989.33 132.906H1026.54L1024.93 143.16H997.533L992.504 160.201C995.824 158.313 999.438 157.369 1003.34 157.369C1009.37 157.434 1013.99 159.648 1017.21 164.01C1020.47 168.372 1021.8 174.02 1021.21 180.953C1020.63 188.082 1017.96 193.909 1013.21 198.434C1008.45 202.958 1002.58 205.156 995.58 205.025C989.656 204.895 984.838 202.991 981.127 199.312C977.449 195.634 975.512 190.784 975.316 184.762H986.4C986.628 188.082 987.556 190.686 989.184 192.574C990.844 194.43 993.155 195.39 996.117 195.455C999.73 195.553 1002.76 194.234 1005.2 191.5C1007.67 188.766 1009.15 185.12 1009.64 180.562C1010.03 176.526 1009.37 173.271 1007.64 170.797C1005.92 168.29 1003.34 167.005 999.926 166.939C997.842 166.874 995.971 167.216 994.311 167.965C992.683 168.681 991.088 169.69 989.525 170.992L980.004 168.6ZM1079.12 195.553C1081.89 195.618 1084.33 194.82 1086.45 193.16C1088.59 191.467 1089.96 189.27 1090.55 186.568L1101.48 186.52C1101.13 190.003 1099.86 193.176 1097.68 196.041C1095.53 198.906 1092.76 201.135 1089.38 202.73C1085.99 204.326 1082.46 205.074 1078.78 204.977C1074.25 204.911 1070.4 203.74 1067.21 201.461C1064.02 199.182 1061.69 196.041 1060.22 192.037C1058.76 188.001 1058.27 183.508 1058.76 178.561L1058.91 176.852C1059.46 171.741 1060.94 167.118 1063.35 162.984C1065.79 158.818 1068.93 155.611 1072.77 153.365C1076.61 151.119 1080.88 150.061 1085.57 150.191C1091.3 150.322 1095.87 152.226 1099.29 155.904C1102.71 159.55 1104.41 164.303 1104.41 170.162H1093.57C1093.57 167.135 1092.83 164.661 1091.33 162.74C1089.86 160.82 1087.73 159.794 1084.93 159.664C1080.41 159.534 1076.84 161.454 1074.24 165.426C1071.63 169.397 1070.23 174.996 1070.04 182.223C1069.81 190.979 1072.84 195.423 1079.12 195.553ZM1112.13 177.389C1112.68 172.213 1114.19 167.509 1116.67 163.277C1119.17 159.046 1122.38 155.774 1126.29 153.463C1130.19 151.152 1134.52 150.061 1139.28 150.191C1143.8 150.257 1147.71 151.461 1150.99 153.805C1154.28 156.148 1156.67 159.355 1158.17 163.424C1159.7 167.493 1160.24 172.018 1159.78 176.998C1159.26 182.597 1157.73 187.545 1155.19 191.842C1152.69 196.139 1149.46 199.443 1145.53 201.754C1141.62 204.033 1137.27 205.107 1132.49 204.977C1128 204.911 1124.11 203.723 1120.82 201.412C1117.56 199.068 1115.17 195.878 1113.64 191.842C1112.11 187.773 1111.56 183.297 1111.98 178.414L1112.13 177.389ZM1123.5 184.078C1123.67 187.496 1124.56 190.247 1126.19 192.33C1127.85 194.381 1130.14 195.455 1133.07 195.553C1137.05 195.65 1140.37 194.12 1143.04 190.963C1145.74 187.805 1147.43 183.492 1148.11 178.023L1148.41 173.238C1148.41 169.072 1147.58 165.8 1145.92 163.424C1144.26 161.048 1141.85 159.794 1138.69 159.664C1133.74 159.534 1129.84 161.959 1126.97 166.939C1125.25 169.967 1124.15 173.45 1123.7 177.389C1123.44 180.123 1123.37 182.353 1123.5 184.078ZM1179.41 204H1167.84L1180.88 129H1192.45L1179.41 204ZM1197.18 177.389C1197.74 172.213 1199.25 167.509 1201.72 163.277C1204.23 159.046 1207.44 155.774 1211.34 153.463C1215.25 151.152 1219.58 150.061 1224.33 150.191C1228.85 150.257 1232.76 151.461 1236.05 153.805C1239.34 156.148 1241.73 159.355 1243.23 163.424C1244.76 167.493 1245.29 172.018 1244.84 176.998C1244.32 182.597 1242.79 187.545 1240.25 191.842C1237.74 196.139 1234.52 199.443 1230.58 201.754C1226.67 204.033 1222.33 205.107 1217.54 204.977C1213.05 204.911 1209.16 203.723 1205.87 201.412C1202.62 199.068 1200.23 195.878 1198.7 191.842C1197.17 187.773 1196.61 183.297 1197.04 178.414L1197.18 177.389ZM1208.56 184.078C1208.72 187.496 1209.62 190.247 1211.24 192.33C1212.9 194.381 1215.2 195.455 1218.13 195.553C1222.1 195.65 1225.42 194.12 1228.09 190.963C1230.79 187.805 1232.48 183.492 1233.17 178.023L1233.46 173.238C1233.46 169.072 1232.63 165.8 1230.97 163.424C1229.31 161.048 1226.9 159.794 1223.74 159.664C1218.8 159.534 1214.89 161.959 1212.03 166.939C1210.3 169.967 1209.21 173.45 1208.75 177.389C1208.49 180.123 1208.43 182.353 1208.56 184.078ZM1286.73 162.008C1285.23 161.682 1283.72 161.52 1282.19 161.52C1277.11 161.389 1273.07 163.489 1270.08 167.818L1263.73 204H1252.16L1261.29 151.168L1272.28 151.119L1271.11 157.125C1274.72 152.34 1278.89 149.996 1283.61 150.094C1284.68 150.094 1286.16 150.338 1288.05 150.826L1286.73 162.008ZM1311.68 204.977C1307.09 204.879 1303.1 203.723 1299.72 201.51C1296.36 199.296 1293.87 196.269 1292.25 192.428C1290.65 188.587 1290.05 184.306 1290.44 179.586L1290.59 177.584C1291.17 172.213 1292.73 167.395 1295.27 163.131C1297.85 158.834 1301.04 155.579 1304.84 153.365C1308.65 151.152 1312.79 150.094 1317.25 150.191C1323.85 150.322 1328.8 152.779 1332.09 157.564C1335.41 162.35 1336.66 168.583 1335.85 176.266L1335.17 181.344H1301.91C1301.62 185.543 1302.47 188.928 1304.45 191.5C1306.44 194.072 1309.17 195.39 1312.66 195.455C1317.64 195.618 1322.23 193.453 1326.43 188.961L1332.29 195.113C1330.07 198.271 1327.16 200.729 1323.54 202.486C1319.93 204.212 1315.98 205.042 1311.68 204.977ZM1316.61 159.664C1310.49 159.469 1305.9 163.798 1302.84 172.652L1324.77 172.701L1324.96 171.676C1325.19 170.178 1325.21 168.714 1325.01 167.281C1324.65 164.97 1323.74 163.147 1322.28 161.812C1320.81 160.478 1318.92 159.762 1316.61 159.664ZM1344.83 177.535C1345.48 172.099 1346.95 167.216 1349.23 162.887C1351.51 158.557 1354.32 155.335 1357.67 153.219C1361.03 151.07 1364.75 150.045 1368.86 150.143C1374.23 150.273 1378.43 152.275 1381.45 156.148L1386.53 129H1398.15L1385.12 204H1374.76L1375.54 198.531C1371.44 202.991 1366.63 205.156 1361.09 205.025C1356.18 204.96 1352.24 203.072 1349.28 199.361C1346.35 195.618 1344.77 190.654 1344.54 184.469C1344.44 182.451 1344.49 180.481 1344.69 178.561L1344.83 177.535ZM1356.06 182.076C1355.83 186.113 1356.45 189.319 1357.92 191.695C1359.42 194.072 1361.63 195.292 1364.56 195.357C1369.02 195.488 1372.88 193.323 1376.13 188.863L1380.09 166.158C1378.56 162.089 1375.59 159.99 1371.2 159.859C1366.77 159.729 1363.21 161.682 1360.51 165.719C1357.8 169.755 1356.32 175.208 1356.06 182.076ZM1457.87 189.352C1458.42 186.129 1456.32 183.899 1451.57 182.662C1446.85 181.393 1443.62 180.383 1441.9 179.635C1435.19 176.77 1431.95 172.408 1432.18 166.549C1432.34 161.796 1434.49 157.874 1438.63 154.781C1442.79 151.656 1447.77 150.126 1453.57 150.191C1459.17 150.257 1463.72 151.835 1467.24 154.928C1470.79 158.02 1472.53 162.073 1472.46 167.086L1460.99 167.037C1461.06 164.596 1460.39 162.691 1458.99 161.324C1457.59 159.924 1455.67 159.192 1453.23 159.127C1450.65 159.127 1448.44 159.762 1446.59 161.031C1444.76 162.301 1443.71 163.961 1443.41 166.012C1442.96 168.974 1445.04 171.041 1449.66 172.213C1454.28 173.352 1457.7 174.41 1459.92 175.387C1466.36 178.219 1469.47 182.646 1469.24 188.668C1469.08 192.021 1467.97 194.951 1465.92 197.457C1463.9 199.931 1461.19 201.835 1457.77 203.17C1454.35 204.472 1450.72 205.074 1446.88 204.977C1441.12 204.911 1436.33 203.235 1432.52 199.947C1428.75 196.66 1426.89 192.444 1426.96 187.301L1438.14 187.35C1438.2 190.182 1439.05 192.33 1440.68 193.795C1442.31 195.26 1444.54 196.008 1447.37 196.041C1450.23 196.041 1452.61 195.455 1454.5 194.283C1456.42 193.079 1457.54 191.435 1457.87 189.352ZM1504.79 138.326L1502.54 151.168H1511.57L1510.06 159.957H1500.98L1496 189.547C1495.9 190.361 1495.88 191.093 1495.95 191.744C1496.14 193.86 1497.45 194.967 1499.86 195.064C1501.06 195.064 1502.43 194.918 1503.96 194.625L1503.18 203.902C1500.77 204.586 1498.34 204.928 1495.9 204.928C1491.86 204.863 1488.84 203.495 1486.82 200.826C1484.83 198.124 1484.05 194.56 1484.47 190.133L1489.41 159.957H1480.96L1482.52 151.168H1490.92L1493.17 138.326H1504.79ZM1514.99 177.389C1515.54 172.213 1517.06 167.509 1519.53 163.277C1522.04 159.046 1525.24 155.774 1529.15 153.463C1533.06 151.152 1537.39 150.061 1542.14 150.191C1546.66 150.257 1550.57 151.461 1553.86 153.805C1557.15 156.148 1559.54 159.355 1561.04 163.424C1562.57 167.493 1563.1 172.018 1562.65 176.998C1562.13 182.597 1560.6 187.545 1558.06 191.842C1555.55 196.139 1552.33 199.443 1548.39 201.754C1544.48 204.033 1540.14 205.107 1535.35 204.977C1530.86 204.911 1526.97 203.723 1523.68 201.412C1520.43 199.068 1518.03 195.878 1516.5 191.842C1514.97 187.773 1514.42 183.297 1514.84 178.414L1514.99 177.389ZM1526.37 184.078C1526.53 187.496 1527.43 190.247 1529.05 192.33C1530.71 194.381 1533.01 195.455 1535.94 195.553C1539.91 195.65 1543.23 194.12 1545.9 190.963C1548.6 187.805 1550.29 183.492 1550.98 178.023L1551.27 173.238C1551.27 169.072 1550.44 165.8 1548.78 163.424C1547.12 161.048 1544.71 159.794 1541.55 159.664C1536.6 159.534 1532.7 161.959 1529.83 166.939C1528.11 169.967 1527.02 173.45 1526.56 177.389C1526.3 180.123 1526.24 182.353 1526.37 184.078ZM1589.84 151.119L1588.67 157.32C1593.19 152.438 1598.42 150.061 1604.34 150.191C1609.29 150.289 1612.95 152.063 1615.33 155.514C1617.71 158.932 1618.59 163.717 1617.97 169.869L1612.25 204H1600.68L1606.44 169.723C1606.61 168.323 1606.62 167.021 1606.49 165.816C1606.07 161.943 1603.76 159.957 1599.56 159.859C1595.16 159.794 1591.31 161.959 1587.99 166.354L1581.39 204H1569.82L1578.95 151.168L1589.84 151.119ZM1650.39 204.977C1645.8 204.879 1641.81 203.723 1638.42 201.51C1635.07 199.296 1632.58 196.269 1630.95 192.428C1629.36 188.587 1628.76 184.306 1629.15 179.586L1629.29 177.584C1629.88 172.213 1631.44 167.395 1633.98 163.131C1636.55 158.834 1639.74 155.579 1643.55 153.365C1647.36 151.152 1651.49 150.094 1655.95 150.191C1662.56 150.322 1667.51 152.779 1670.8 157.564C1674.12 162.35 1675.37 168.583 1674.56 176.266L1673.87 181.344H1640.62C1640.33 185.543 1641.17 188.928 1643.16 191.5C1645.15 194.072 1647.88 195.39 1651.36 195.455C1656.34 195.618 1660.93 193.453 1665.13 188.961L1670.99 195.113C1668.78 198.271 1665.87 200.729 1662.25 202.486C1658.64 204.212 1654.68 205.042 1650.39 204.977ZM1655.32 159.664C1649.2 159.469 1644.61 163.798 1641.55 172.652L1663.47 172.701L1663.67 171.676C1663.9 170.178 1663.91 168.714 1663.72 167.281C1663.36 164.97 1662.45 163.147 1660.98 161.812C1659.52 160.478 1657.63 159.762 1655.32 159.664ZM1712.59 189.352C1713.15 186.129 1711.05 183.899 1706.29 182.662C1701.57 181.393 1698.35 180.383 1696.62 179.635C1689.92 176.77 1686.68 172.408 1686.91 166.549C1687.07 161.796 1689.22 157.874 1693.35 154.781C1697.52 151.656 1702.5 150.126 1708.29 150.191C1713.89 150.257 1718.45 151.835 1721.97 154.928C1725.51 158.02 1727.26 162.073 1727.19 167.086L1715.72 167.037C1715.78 164.596 1715.11 162.691 1713.71 161.324C1712.32 159.924 1710.39 159.192 1707.95 159.127C1705.38 159.127 1703.17 159.762 1701.31 161.031C1699.49 162.301 1698.43 163.961 1698.14 166.012C1697.68 168.974 1699.77 171.041 1704.39 172.213C1709.01 173.352 1712.43 174.41 1714.64 175.387C1721.09 178.219 1724.2 182.646 1723.97 188.668C1723.81 192.021 1722.7 194.951 1720.65 197.457C1718.63 199.931 1715.91 201.835 1712.49 203.17C1709.08 204.472 1705.45 205.074 1701.61 204.977C1695.84 204.911 1691.06 203.235 1687.25 199.947C1683.47 196.66 1681.62 192.444 1681.68 187.301L1692.87 187.35C1692.93 190.182 1693.78 192.33 1695.4 193.795C1697.03 195.26 1699.26 196.008 1702.09 196.041C1704.96 196.041 1707.33 195.455 1709.22 194.283C1711.14 193.079 1712.27 191.435 1712.59 189.352Z" fill="#1F1B17"/>
<defs>
<filter id="filter0_f" x="0" y="0" width="1850" height="342" filterUnits="userSpaceOnUse" color-interpolation-filters="sRGB">
<feFlood flood-opacity="0" result="BackgroundImageFix"/>
<feBlend mode="normal" in="SourceGraphic" in2="BackgroundImageFix" result="shape"/>
<feGaussianBlur stdDeviation="30" result="effect1_foregroundBlur"/>
</filter>
<linearGradient id="paint0_linear" x1="442" y1="171" x2="292.138" y2="187.705" gradientUnits="userSpaceOnUse">
<stop stop-color="#31AEF4"/>
<stop offset="1" stop-color="white" stop-opacity="0"/>
</linearGradient>
<linearGradient id="paint1_linear" x1="254" y1="146" x2="117.948" y2="119.136" gradientUnits="userSpaceOnUse">
<stop stop-color="#31AEF4"/>
<stop offset="1" stop-color="white" stop-opacity="0"/>
</linearGradient>
<linearGradient id="paint2_linear" x1="1064" y1="174" x2="1052.95" y2="175.525" gradientUnits="userSpaceOnUse">
<stop stop-color="#FF655B"/>
<stop offset="1" stop-color="white" stop-opacity="0"/>
</linearGradient>
<linearGradient id="paint3_linear" x1="1438" y1="176" x2="1321.95" y2="173.338" gradientUnits="userSpaceOnUse">
<stop stop-color="#FCFCFC"/>
<stop offset="1" stop-color="white" stop-opacity="0"/>
</linearGradient>
</defs>
</svg>
