<?xml version="1.0" encoding="UTF-8" standalone="no"?>
<svg
   xmlns:dc="http://purl.org/dc/elements/1.1/"
   xmlns:cc="http://creativecommons.org/ns#"
   xmlns:rdf="http://www.w3.org/1999/02/22-rdf-syntax-ns#"
   xmlns:svg="http://www.w3.org/2000/svg"
   xmlns="http://www.w3.org/2000/svg"
   viewBox="0 0 372.35999 384"
   height="384"
   width="372.35999"
   xml:space="preserve"
   id="svg2"
   version="1.1"><metadata
     id="metadata8"><rdf:RDF><cc:Work
         rdf:about=""><dc:format>image/svg+xml</dc:format><dc:type
           rdf:resource="http://purl.org/dc/dcmitype/StillImage" /><dc:title></dc:title></cc:Work></rdf:RDF></metadata><defs
     id="defs6" /><g
     transform="matrix(1.3333333,0,0,-1.3333333,0,384)"
     id="g10"><g
       transform="scale(0.1)"
       id="g12"><path
         id="path14"
         style="fill:#e0dedc;fill-opacity:1;fill-rule:nonzero;stroke:none"
         d="M 1440.01,540 C 942.949,540 540,942.93 540,1439.99 c 0,497.05 402.949,900 900.01,900 314.17,0 590.67,-161.02 751.67,-405 h 600.98 c -201.86,551.44 -731.31,945 -1352.65,945 C 644.719,2879.99 0,2235.28 0,1439.99 0,644.711 644.719,0 1440.01,0 2061.35,0 2590.8,393.551 2792.66,945 H 2191.68 C 2030.7,701.02 1754.18,540 1440.01,540" /><path
         id="path16"
         style="fill:#e0dedc;fill-opacity:1;fill-rule:nonzero;stroke:none"
         d="m 1863.24,1426.95 v 152.79 l -311.77,-145.18 -36.26,499.59 h -151.16 l -28.85,-557.69 h -119.3 l -28.86,557.69 H 1029.16 L 999.156,945.121 H 2191.62 l -20,634.619 -308.38,-152.79" /></g></g></svg>
