<?xml version="1.0" encoding="UTF-8" standalone="no"?>
<svg
   xmlns:dc="http://purl.org/dc/elements/1.1/"
   xmlns:cc="http://creativecommons.org/ns#"
   xmlns:rdf="http://www.w3.org/1999/02/22-rdf-syntax-ns#"
   xmlns:svg="http://www.w3.org/2000/svg"
   xmlns="http://www.w3.org/2000/svg"
   viewBox="0 0 664.14667 249.70667"
   height="249.70667"
   width="664.14667"
   xml:space="preserve"
   id="svg97"
   version="1.1"><metadata
     id="metadata103"><rdf:RDF><cc:Work
         rdf:about=""><dc:format>image/svg+xml</dc:format><dc:type
           rdf:resource="http://purl.org/dc/dcmitype/StillImage" /><dc:title></dc:title></cc:Work></rdf:RDF></metadata><defs
     id="defs101" /><g
     transform="matrix(1.3333333,0,0,-1.3333333,0,249.70667)"
     id="g105"><g
       transform="scale(0.1)"
       id="g107"><path
         id="path109"
         style="fill:#e0dedc;fill-opacity:1;fill-rule:nonzero;stroke:none"
         d="m 298.352,352.332 h 37.32 v 307.762 h -37.32 v 8.285 h 151.113 v -8.285 H 407.539 V 516.801 l 105.035,105.047 c 10.137,9.683 20.731,20.273 20.731,28.109 0,5.981 -5.985,10.137 -23.953,10.137 h -8.289 v 8.285 H 619 v -8.285 h -11.984 c -30.403,0 -55.735,-16.141 -75.551,-35.492 L 465.582,559.199 601.496,352.332 h 33.168 v -8.285 H 480.328 v 8.285 h 35.934 l -101.813,158.031 -6.91,-6.453 V 352.332 h 39.16 v -8.285 H 298.352 v 8.285" /><path
         id="path111"
         style="fill:#e0dedc;fill-opacity:1;fill-rule:nonzero;stroke:none"
         d="m 770.176,675.738 c 87.07,0 146.496,-79.222 146.496,-169.527 1.844,-86.152 -64.957,-169.527 -146.496,-169.527 -81.547,0 -148.348,83.375 -146.504,169.527 0,90.305 59.426,169.527 146.504,169.527 z m 69.101,-169.527 c 0,145.574 -33.629,161.242 -69.101,161.242 -35.477,0 -69.106,-15.668 -69.106,-161.242 0,-117.012 15.203,-161.242 69.106,-161.242 53.902,0 69.101,44.23 69.101,161.242" /><path
         id="path113"
         style="fill:#e0dedc;fill-opacity:1;fill-rule:nonzero;stroke:none"
         d="m 935.48,352.332 h 8.29 c 14.289,0 27.648,5.078 27.648,33.184 V 632.91 l -20.273,27.184 h -14.286 v 8.285 h 94.911 l 173.68,-223.441 h 0.93 v 188.898 c 0,17.496 -11.07,26.258 -31.33,26.258 h -8.76 v 8.285 h 87.07 v -8.285 h -6.45 c -20.73,0 -29.48,-13.367 -29.48,-24.883 V 338.516 h -19.35 L 983.395,618.621 h -0.922 V 383.215 c 0,-26.277 10.136,-30.883 35.937,-30.883 h 4.14 v -8.285 h -87.07 v 8.285" /><path
         id="path115"
         style="fill:#e0dedc;fill-opacity:1;fill-rule:nonzero;stroke:none"
         d="m 1274.16,352.332 h 37.31 v 307.762 h -37.31 v 8.285 h 257.53 v -91.684 h -8.3 v 6.457 c 0,41.922 -30.87,76.942 -85.68,76.942 h -54.37 V 519.105 h 31.79 c 29.95,0 45.61,17.043 45.61,60.821 v 5.054 h 8.29 V 439.406 h -8.29 v 10.59 c 0,32.715 -15.66,60.82 -45.61,60.82 h -31.79 V 352.332 h 66.34 c 75.55,0 86.61,62.672 86.61,88.926 v 6.437 h 8.3 V 344.047 h -270.43 v 8.285" /><path
         id="path117"
         style="fill:#e0dedc;fill-opacity:1;fill-rule:nonzero;stroke:none"
         d="m 1702.69,352.332 h 37.32 v 307.762 h -37.32 v 8.285 h 262.6 v -91.684 h -8.3 v 7.383 c 0,40.074 -33.63,76.016 -98.59,76.016 h -46.53 V 519.105 h 26.26 c 36.85,0 58.51,17.043 58.51,57.59 v 8.285 h 8.29 V 439.406 h -8.29 v 8.289 c 0,42.848 -18.43,63.121 -63.58,63.121 h -21.19 V 352.332 h 46.08 v -8.285 h -155.26 v 8.285" /><path
         id="path119"
         style="fill:#e0dedc;fill-opacity:1;fill-rule:nonzero;stroke:none"
         d="m 2131.93,675.738 c 87.07,0 146.49,-79.222 146.49,-169.527 1.85,-86.152 -64.95,-169.527 -146.49,-169.527 -81.55,0 -148.35,83.375 -146.51,169.527 0,90.305 59.43,169.527 146.51,169.527 z m 69.1,-169.527 c 0,145.574 -33.63,161.242 -69.1,161.242 -35.48,0 -69.11,-15.668 -69.11,-161.242 0,-117.012 15.21,-161.242 69.11,-161.242 53.9,0 69.1,44.23 69.1,161.242" /><path
         id="path121"
         style="fill:#e0dedc;fill-opacity:1;fill-rule:nonzero;stroke:none"
         d="M 2293.88,668.379 H 2439 v -8.285 h -37.32 V 457.379 c 0,-58.969 13.36,-104.121 80.62,-104.121 44.68,0 82.46,30.41 82.46,93.058 v 175.079 c 0,26.71 -7.37,38.699 -30.86,38.699 h -13.37 v 8.285 h 91.22 v -8.285 h -11.97 c -16.58,0 -23.96,-11.989 -23.96,-38.699 V 449.094 c 0,-67.731 -36.86,-112.41 -121.62,-112.41 -75.1,0 -124.4,43.3 -124.4,114.711 v 208.699 h -35.92 v 8.285" /><path
         id="path123"
         style="fill:#e0dedc;fill-opacity:1;fill-rule:nonzero;stroke:none"
         d="m 2630.47,352.332 h 8.29 c 14.29,0 27.65,5.078 27.65,33.184 V 632.91 l -20.28,27.184 h -14.27 v 8.285 h 94.9 l 173.68,-223.441 h 0.93 v 188.898 c 0,17.496 -11.07,26.258 -31.33,26.258 h -8.76 v 8.285 h 87.08 v -8.285 h -6.45 c -20.74,0 -29.49,-13.367 -29.49,-24.883 V 338.516 h -19.35 l -214.69,280.105 h -0.91 V 383.215 c 0,-26.277 10.13,-30.883 35.92,-30.883 h 4.16 v -8.285 h -87.08 v 8.285" /><path
         id="path125"
         style="fill:#e0dedc;fill-opacity:1;fill-rule:nonzero;stroke:none"
         d="m 2972.05,352.332 h 37.32 v 307.762 h -37.32 v 8.285 h 158.94 c 96.28,0 163.54,-62.652 163.54,-164.469 0,-58.047 -35.47,-159.863 -160.78,-159.863 h -161.7 z m 109.18,0 h 38.24 c 90.3,0 97.66,74.637 97.66,155.731 0,87.98 -7.82,152.031 -91.67,152.031 h -44.23 V 352.332" /><path
         id="path127"
         style="fill:#e0dedc;fill-opacity:1;fill-rule:nonzero;stroke:none"
         d="m 3288.43,352.332 h 5.98 c 17.52,1.398 25.8,12.438 31.34,27.652 l 106.88,295.754 h 6.91 L 3563,352.332 h 22.58 v -8.285 h -137.29 v 8.285 h 36.86 l -33.63,95.836 h -89.38 l -22.12,-64.953 c -1.38,-3.699 -3.22,-8.758 -3.22,-13.836 0,-15.195 12.9,-17.047 22.11,-17.047 h 12.9 v -8.285 h -83.38 z m 159.4,104.121 -40.08,116.563 h -0.92 l -41,-116.563 h 82" /><path
         id="path129"
         style="fill:#e0dedc;fill-opacity:1;fill-rule:nonzero;stroke:none"
         d="m 3636.86,352.332 h 42.85 v 307.762 h -18.89 c -59.9,0 -75.1,-41.926 -82.01,-92.61 h -8.29 v 100.895 h 290.24 V 567.484 h -8.29 c -6.91,50.684 -22.12,92.61 -82.01,92.61 h -18.89 V 352.332 h 42.85 v -8.285 h -157.56 v 8.285" /><path
         id="path131"
         style="fill:#e0dedc;fill-opacity:1;fill-rule:nonzero;stroke:none"
         d="m 3885.38,352.332 h 37.31 v 307.762 h -37.31 v 8.285 h 146.5 v -8.285 h -37.32 V 352.332 h 37.32 v -8.285 h -146.5 v 8.285" /><path
         id="path133"
         style="fill:#e0dedc;fill-opacity:1;fill-rule:nonzero;stroke:none"
         d="m 4199.55,675.738 c 87.08,0 146.5,-79.222 146.5,-169.527 1.85,-86.152 -64.95,-169.527 -146.5,-169.527 -81.53,0 -148.34,83.375 -146.5,169.527 0,90.305 59.43,169.527 146.5,169.527 z m 69.11,-169.527 c 0,145.574 -33.63,161.242 -69.11,161.242 -35.47,0 -69.1,-15.668 -69.1,-161.242 0,-117.012 15.2,-161.242 69.1,-161.242 53.91,0 69.11,44.23 69.11,161.242" /><path
         id="path135"
         style="fill:#e0dedc;fill-opacity:1;fill-rule:nonzero;stroke:none"
         d="m 4364.87,352.332 h 8.29 c 14.29,0 27.64,5.078 27.64,33.184 V 632.91 l -20.27,27.184 h -14.28 v 8.285 h 94.91 l 173.68,-223.441 h 0.92 v 188.898 c 0,17.496 -11.06,26.258 -31.33,26.258 h -8.75 v 8.285 h 87.07 v -8.285 h -6.45 c -20.73,0 -29.49,-13.367 -29.49,-24.883 V 338.516 h -19.34 l -214.69,280.105 h -0.92 V 383.215 c 0,-26.277 10.14,-30.883 35.93,-30.883 h 4.15 v -8.285 h -87.07 v 8.285" /><path
         id="path137"
         style="fill:#f8aa63;fill-opacity:1;fill-rule:nonzero;stroke:none"
         d="m 2490.54,1536.12 c -186.92,0 -338.99,-152.07 -338.99,-338.99 0,-186.95 152.07,-339.017 338.99,-339.017 186.94,0 339.01,152.067 339.01,339.017 0,186.92 -152.07,338.99 -339.01,338.99 z m 0,-646.397 c -169.49,0 -307.38,137.897 -307.38,307.407 0,169.48 137.89,307.37 307.38,307.37 169.51,0 307.4,-137.89 307.4,-307.37 0,-169.51 -137.89,-307.407 -307.4,-307.407" /><path
         id="path139"
         style="fill:#f8aa63;fill-opacity:1;fill-rule:nonzero;stroke:none"
         d="m 2521.59,1186.52 c -4.52,5.83 -11.49,9.24 -18.86,9.24 h -70.29 c -1.9,0 -2.97,-2.18 -1.8,-3.69 l 112.02,-144.39 c 6.38,-8.22 16.19,-13.04 26.59,-13.04 h 65.5 c 1.9,0 2.96,2.19 1.8,3.69 l -114.96,148.19" /><path
         id="path141"
         style="fill:#f8aa63;fill-opacity:1;fill-rule:nonzero;stroke:none"
         d="m 2567.42,1305.11 59.4,51.86 c 1.18,1.03 0.45,2.97 -1.12,2.97 h -86.27 c -1.27,0 -2.09,-1.33 -1.52,-2.46 l 26.38,-51.76 c 0.59,-1.17 2.13,-1.47 3.13,-0.61" /><path
         id="path143"
         style="fill:#f8aa63;fill-opacity:1;fill-rule:nonzero;stroke:none"
         d="m 2709.36,1196.91 c -31.67,6.24 -56.61,31.18 -62.86,62.86 -0.25,1.3 -2.05,1.3 -2.3,0 -6.25,-31.67 -31.18,-56.62 -62.86,-62.86 -1.3,-0.25 -1.3,-2.05 0,-2.3 31.68,-6.24 56.61,-31.18 62.86,-62.86 0.25,-1.3 2.05,-1.3 2.3,0 6.25,31.68 31.19,56.62 62.86,62.86 1.3,0.25 1.3,2.05 0,2.3" /><path
         id="path145"
         style="fill:#f8aa63;fill-opacity:1;fill-rule:nonzero;stroke:none"
         d="m 2400.88,1360.05 h -73.45 c -1.83,0 -3.32,-1.48 -3.32,-3.32 v -157.65 c 0,-1.83 1.49,-3.32 3.32,-3.32 h 73.45 c 1.83,0 3.32,1.49 3.32,3.32 v 157.65 c 0,1.84 -1.49,3.32 -3.32,3.32" /><path
         id="path147"
         style="fill:#f8aa63;fill-opacity:1;fill-rule:nonzero;stroke:none"
         d="m 2328.08,1115.77 c -1.27,1.69 -3.97,0.79 -3.97,-1.33 V 1037 c 0,-1.56 1.27,-2.82 2.83,-2.82 h 57.91 c 1.82,0 2.86,2.07 1.77,3.53 l -58.54,78.06" /></g></g></svg>
